# xmcd CD database file generated by Grip 3.2.0
# 
# Track frame offsets:
#       150
#       15093
#       27057
#       35713
#       59315
#       74999
#       91197
#       102182
#       120071
#       130318
#       147911
#       156604
# 
# Disc length: 2364 seconds
# 
# Revision: 2
# Processed by: cddbd v1.5.2PL0 Copyright (c) Steve Scherf et al.
# Submitted via: Grip 3.2.0
# 
DISCID=9d093a0c
DTITLE=Ştefan Iordache, Nelu Ploieşteanu and Gheorghe Dinică - Cântece de p
DTITLE=etrecere vol. 2
DYEAR=1900
DGENRE=Blues
TTITLE0=Bulgăraş de gheaţă rece
TTITLE1=Cine-a pus cârciuma-n drum
TTITLE2=Pentru cine am muncit
TTITLE3=Tot am zis mă duc, mă duc
TTITLE4=Cocoşele - cocoşelule
TTITLE5=Sunt vagabondul vieţii mele
TTITLE6=Vine-o vreme
TTITLE7=La Şalul cel negru
TTITLE8=Ionel - Ionelule
TTITLE9=Lume - lume
TTITLE10=Căsuţa noastră
TTITLE11=Înainte de moarte
EXTD=
EXTT0=
EXTT1=
EXTT2=
EXTT3=
EXTT4=
EXTT5=
EXTT6=
EXTT7=
EXTT8=
EXTT9=
EXTT10=
EXTT11=
PLAYORDER=
